<svg width="40" height="41" viewBox="0 0 40 41" fill="none" xmlns="http://www.w3.org/2000/svg">
<path d="M30.625 0.0981445H9.375C4.19733 0.0981445 0 4.29548 0 9.47314V30.7231C0 35.9008 4.19733 40.0981 9.375 40.0981H30.625C35.8027 40.0981 40 35.9008 40 30.7231V9.47314C40 4.29548 35.8027 0.0981445 30.625 0.0981445Z" fill="url(#paint0_radial_215_3514)"/>
<path d="M30.625 0.0981445H9.375C4.19733 0.0981445 0 4.29548 0 9.47314V30.7231C0 35.9008 4.19733 40.0981 9.375 40.0981H30.625C35.8027 40.0981 40 35.9008 40 30.7231V9.47314C40 4.29548 35.8027 0.0981445 30.625 0.0981445Z" fill="url(#paint1_radial_215_3514)"/>
<path d="M20.0014 4.47314C15.758 4.47314 15.2253 4.49174 13.5588 4.56752C11.8953 4.64377 10.7598 4.90705 9.76641 5.29346C8.73859 5.69252 7.86688 6.22643 6.99844 7.09518C6.12922 7.96377 5.59531 8.83549 5.195 9.86283C4.8075 10.8566 4.54391 11.9925 4.46906 13.6552C4.39453 15.3219 4.375 15.8547 4.375 20.0983C4.375 24.3419 4.39375 24.8728 4.46938 26.5394C4.54594 28.2028 4.80922 29.3383 5.19531 30.3317C5.59469 31.3596 6.12859 32.2313 6.99734 33.0997C7.86563 33.9689 8.73734 34.5041 9.76438 34.9031C10.7586 35.2896 11.8942 35.5528 13.5573 35.6291C15.2241 35.7049 15.7563 35.7235 19.9995 35.7235C24.2434 35.7235 24.7744 35.7049 26.4409 35.6291C28.1044 35.5528 29.2411 35.2896 30.2353 34.9031C31.2627 34.5041 32.1331 33.9689 33.0012 33.0997C33.8705 32.2313 34.4042 31.3596 34.8047 30.3322C35.1887 29.3383 35.4525 28.2025 35.5306 26.5397C35.6055 24.8731 35.625 24.3419 35.625 20.0983C35.625 15.8547 35.6055 15.3222 35.5306 13.6555C35.4525 11.9921 35.1887 10.8567 34.8047 9.8633C34.4042 8.83549 33.8705 7.96377 33.0012 7.09518C32.1322 6.22611 31.263 5.69221 30.2344 5.29361C29.2383 4.90705 28.1022 4.64361 26.4387 4.56752C24.772 4.49174 24.2414 4.47314 19.9966 4.47314H20.0014ZM18.5997 7.28893C19.0158 7.2883 19.48 7.28893 20.0014 7.28893C24.1734 7.28893 24.6678 7.30393 26.3153 7.37877C27.8387 7.44846 28.6656 7.70299 29.2164 7.91689C29.9456 8.20002 30.4655 8.53861 31.012 9.08564C31.5589 9.63252 31.8973 10.1533 32.1813 10.8825C32.3952 11.4325 32.65 12.2594 32.7194 13.7828C32.7942 15.43 32.8105 15.9247 32.8105 20.0947C32.8105 24.2647 32.7942 24.7596 32.7194 26.4066C32.6497 27.93 32.3952 28.7569 32.1813 29.3071C31.8981 30.0363 31.5589 30.5555 31.012 31.1021C30.4652 31.6489 29.9459 31.9874 29.2164 32.2706C28.6663 32.4855 27.8387 32.7394 26.3153 32.8091C24.6681 32.8839 24.1734 32.9002 20.0014 32.9002C15.8292 32.9002 15.3347 32.8839 13.6877 32.8091C12.1642 32.7388 11.3373 32.4842 10.7861 32.2703C10.057 31.987 9.53609 31.6486 8.98922 31.1017C8.44234 30.5549 8.10391 30.0353 7.82 29.3058C7.60609 28.7556 7.35125 27.9288 7.28188 26.4053C7.20703 24.7581 7.19203 24.2635 7.19203 20.0908C7.19203 15.9183 7.20703 15.4261 7.28188 13.7789C7.35156 12.2555 7.60609 11.4286 7.82 10.8778C8.10328 10.1486 8.44234 9.62783 8.98938 9.08096C9.53625 8.53408 10.057 8.19549 10.7862 7.91174C11.337 7.69689 12.1642 7.44299 13.6877 7.37299C15.1291 7.30783 15.6877 7.2883 18.5997 7.28502V7.28893ZM28.342 9.8833C27.3069 9.8833 26.467 10.7224 26.467 11.7577C26.467 12.7928 27.3069 13.6327 28.342 13.6327C29.3772 13.6327 30.217 12.7928 30.217 11.7577C30.217 10.7225 29.3772 9.88268 28.342 9.88268V9.8833ZM20.0014 12.0741C15.5702 12.0741 11.9773 15.6669 11.9773 20.0983C11.9773 24.5297 15.5702 28.1208 20.0014 28.1208C24.4328 28.1208 28.0244 24.5297 28.0244 20.0983C28.0244 15.6671 24.4325 12.0741 20.0011 12.0741H20.0014ZM20.0014 14.8899C22.8778 14.8899 25.2098 17.2216 25.2098 20.0983C25.2098 22.9747 22.8778 25.3067 20.0014 25.3067C17.1248 25.3067 14.7931 22.9747 14.7931 20.0983C14.7931 17.2216 17.1248 14.8899 20.0014 14.8899Z" fill="white"/>
<defs>
<radialGradient id="paint0_radial_215_3514" cx="0" cy="0" r="1" gradientUnits="userSpaceOnUse" gradientTransform="translate(10.625 43.1789) rotate(-90) scale(39.643 36.8711)">
<stop stop-color="#FFDD55"/>
<stop offset="0.1" stop-color="#FFDD55"/>
<stop offset="0.5" stop-color="#FF543E"/>
<stop offset="1" stop-color="#C837AB"/>
</radialGradient>
<radialGradient id="paint1_radial_215_3514" cx="0" cy="0" r="1" gradientUnits="userSpaceOnUse" gradientTransform="translate(-6.70016 2.97955) rotate(78.681) scale(17.7206 73.045)">
<stop stop-color="#3771C8"/>
<stop offset="0.128" stop-color="#3771C8"/>
<stop offset="1" stop-color="#6600FF" stop-opacity="0"/>
</radialGradient>
</defs>
</svg>
