<svg width="60" height="61" viewBox="0 0 60 61" fill="none" xmlns="http://www.w3.org/2000/svg">
<path d="M53.2283 18.3532C52.9544 17.3216 52.4142 16.3801 51.6619 15.6229C50.9095 14.8657 49.9715 14.3196 48.9416 14.039C45.1608 13.019 30 13.019 30 13.019C30 13.019 14.8391 13.019 11.0583 14.039C10.0285 14.3196 9.09039 14.8657 8.33807 15.6229C7.58574 16.3801 7.04556 17.3216 6.77163 18.3532C5.7583 22.1582 5.7583 30.0982 5.7583 30.0982C5.7583 30.0982 5.7583 38.0382 6.77163 41.844C7.04556 42.8757 7.58574 43.8172 8.33807 44.5743C9.09039 45.3315 10.0285 45.8777 11.0583 46.1582C14.8391 47.1774 30 47.1774 30 47.1774C30 47.1774 45.1608 47.1774 48.9416 46.1582C49.9715 45.8777 50.9095 45.3315 51.6619 44.5743C52.4142 43.8172 52.9544 42.8757 53.2283 41.844C54.2416 38.0382 54.2416 30.0982 54.2416 30.0982C54.2416 30.0982 54.2416 22.1582 53.2283 18.3532Z" fill="#EA5A47"/>
<path d="M25.0417 37.3063L37.7134 30.098L25.0417 22.8896V37.3063Z" fill="white"/>
<path d="M53.2283 18.3532C52.9544 17.3216 52.4142 16.3801 51.6619 15.6229C50.9095 14.8657 49.9715 14.3196 48.9416 14.039C45.1608 13.019 30 13.019 30 13.019C30 13.019 14.8391 13.019 11.0583 14.039C10.0285 14.3196 9.09039 14.8657 8.33807 15.6229C7.58574 16.3801 7.04556 17.3216 6.77163 18.3532C5.7583 22.1582 5.7583 30.0982 5.7583 30.0982C5.7583 30.0982 5.7583 38.0382 6.77163 41.844C7.04556 42.8757 7.58574 43.8172 8.33807 44.5743C9.09039 45.3315 10.0285 45.8777 11.0583 46.1582C14.8391 47.1774 30 47.1774 30 47.1774C30 47.1774 45.1608 47.1774 48.9416 46.1582C49.9715 45.8777 50.9095 45.3315 51.6619 44.5743C52.4142 43.8172 52.9544 42.8757 53.2283 41.844C54.2416 38.0382 54.2416 30.0982 54.2416 30.0982C54.2416 30.0982 54.2416 22.1582 53.2283 18.3532Z" stroke="black" stroke-width="2" stroke-miterlimit="10"/>
<path d="M25.0417 37.3063L37.7134 30.098L25.0417 22.8896V37.3063Z" stroke="black" stroke-width="2" stroke-miterlimit="10" stroke-linecap="round" stroke-linejoin="round"/>
</svg>
