<svg width="40" height="41" viewBox="0 0 40 41" fill="none" xmlns="http://www.w3.org/2000/svg">
<path d="M36.453 1.60742H3.5499C2.4229 1.60742 1.50928 2.52104 1.50928 3.64805V36.5512C1.50928 37.6782 2.4229 38.5918 3.5499 38.5918H36.453C37.58 38.5918 38.4937 37.6782 38.4937 36.5512V3.64805C38.4937 2.52104 37.58 1.60742 36.453 1.60742Z" fill="#3D5A98"/>
<path d="M27.0251 38.5888V24.267H31.8313L32.5501 18.6857H27.0251V15.1232C27.0251 13.5076 27.4751 12.4045 29.7907 12.4045H32.747V7.40446C31.3155 7.25527 29.8769 7.18433 28.4376 7.19196C24.1813 7.19196 21.2501 9.78571 21.2501 14.5701V18.6857H16.4438V24.267H21.2501V38.5888H27.0251Z" fill="white"/>
</svg>
